<svg width="375" height="142" viewBox="0 0 375 142" fill="none" xmlns="http://www.w3.org/2000/svg">
<path d="M110.645 84.955C110.634 84.892 110.62 84.829 110.603 84.77C110.586 84.708 110.569 84.648 110.548 84.589C110.521 84.523 110.493 84.459 110.46 84.393C110.443 84.359 110.435 84.326 110.416 84.296C110.405 84.275 110.391 84.263 110.38 84.246C110.341 84.183 110.299 84.128 110.255 84.069C110.217 84.023 110.184 83.977 110.142 83.935C110.1 83.889 110.051 83.851 110.003 83.809C109.957 83.767 109.909 83.721 109.86 83.688C109.81 83.65 109.752 83.621 109.697 83.587C109.646 83.558 109.593 83.524 109.538 83.503C109.479 83.474 109.416 83.457 109.355 83.432C109.298 83.411 109.238 83.394 109.181 83.377C109.122 83.364 109.057 83.356 108.996 83.348C108.93 83.34 108.866 83.331 108.793 83.327C108.77 83.327 108.753 83.322 108.729 83.322C108.689 83.322 108.653 83.331 108.616 83.335C108.549 83.34 108.481 83.344 108.41 83.353C108.348 83.361 108.285 83.377 108.222 83.394C108.163 83.412 108.105 83.428 108.046 83.449C107.979 83.474 107.916 83.504 107.852 83.542C107.818 83.554 107.783 83.563 107.753 83.579L89.352 94.207C89.331 94.211 89.319 94.228 89.3 94.24C89.243 94.282 89.185 94.32 89.13 94.361C89.084 94.403 89.037 94.437 88.991 94.474C88.947 94.52 88.905 94.571 88.863 94.617C88.823 94.663 88.782 94.71 88.744 94.76C88.706 94.811 88.677 94.869 88.645 94.919C88.614 94.974 88.584 95.028 88.559 95.083C88.53 95.142 88.509 95.204 88.49 95.263C88.469 95.322 88.451 95.38 88.436 95.439C88.421 95.498 88.416 95.561 88.404 95.624C88.396 95.686 88.385 95.758 88.383 95.829C88.383 95.854 88.376 95.871 88.376 95.892V139.993C99.536 137.29 110.677 128.926 110.677 128.926V85.274C110.677 85.236 110.668 85.203 110.666 85.161C110.663 85.093 110.656 85.026 110.645 84.955ZM106.78 128.926L92.276 120.549V97.02L106.78 88.647V128.926Z" fill="black"/>
<path d="M129.753 48.899C129.694 48.936 129.64 48.978 129.583 49.02C129.537 49.058 129.489 49.095 129.447 49.133C129.4 49.179 129.359 49.225 129.317 49.271C129.275 49.322 129.233 49.368 129.199 49.418C129.162 49.468 129.131 49.522 129.096 49.577C129.067 49.632 129.035 49.681 129.01 49.74C128.983 49.799 128.964 49.857 128.944 49.921C128.923 49.98 128.902 50.038 128.889 50.097C128.874 50.156 128.868 50.214 128.86 50.273C128.849 50.344 128.839 50.412 128.837 50.483C128.837 50.504 128.831 50.52 128.831 50.545V112.98C137.436 101.248 142.528 86.777 142.528 71.109C142.528 31.957 110.789 0.217041 71.636 0.217041C32.483 0.217041 0.744019 31.956 0.744019 71.109C0.744019 80.906 2.73002 90.235 6.32402 98.725V65.455L56.612 94.491C56.612 94.491 56.616 94.491 56.618 94.496C56.621 94.496 56.621 94.496 56.623 94.496C56.736 94.562 56.861 94.604 56.985 94.646C57.022 94.659 57.054 94.684 57.093 94.688C57.255 94.73 57.42 94.755 57.586 94.755V94.751C57.59 94.751 57.59 94.755 57.59 94.755C57.758 94.755 57.93 94.726 58.097 94.684C58.152 94.667 58.206 94.638 58.261 94.613C58.357 94.58 58.459 94.551 58.55 94.5C58.554 94.496 58.558 94.496 58.56 94.491C58.56 94.491 58.56 94.491 58.562 94.491L65.63 90.41V141.727C66.918 141.835 68.217 141.907 69.525 141.949V87.036C69.525 86.999 69.512 86.966 69.512 86.924C69.508 86.861 69.504 86.785 69.491 86.718C69.478 86.656 69.466 86.597 69.449 86.534C69.432 86.474 69.416 86.412 69.394 86.357C69.369 86.286 69.339 86.227 69.306 86.156C69.289 86.127 69.281 86.094 69.264 86.06C69.251 86.043 69.239 86.031 69.227 86.009C69.187 85.954 69.145 85.892 69.101 85.837C69.067 85.791 69.03 85.745 68.988 85.703C68.946 85.657 68.898 85.611 68.849 85.573C68.803 85.531 68.757 85.489 68.706 85.456C68.656 85.414 68.598 85.389 68.543 85.351C68.493 85.327 68.439 85.297 68.384 85.268C68.325 85.239 68.265 85.221 68.201 85.201C68.144 85.18 68.086 85.159 68.027 85.146C67.968 85.133 67.906 85.125 67.842 85.113C67.776 85.104 67.712 85.096 67.639 85.092C67.617 85.092 67.6 85.088 67.575 85.088C67.535 85.088 67.502 85.097 67.462 85.101C67.395 85.101 67.328 85.11 67.257 85.122C67.194 85.131 67.131 85.147 67.069 85.164C67.009 85.182 66.951 85.198 66.892 85.219C66.826 85.24 66.762 85.27 66.698 85.307C66.664 85.324 66.629 85.332 66.599 85.349L62.802 87.54L99.876 22.093L136.945 44.73L129.799 48.862C129.786 48.869 129.77 48.887 129.753 48.899Z" fill="black"/>
<path d="M185.921 32.2908V48.5748H167.159V32.2908H157.601V73.5908H167.159V56.6578H185.921V73.5908H195.479V32.2908H185.921ZM225.251 74.2988C238.231 74.2988 247.848 65.2718 247.848 52.9408C247.848 40.6098 238.231 31.5828 225.251 31.5828C212.212 31.5828 202.654 40.6688 202.654 52.9408C202.654 65.2128 212.212 74.2988 225.251 74.2988ZM225.251 66.1568C217.876 66.1568 212.33 60.7878 212.33 52.9408C212.33 45.0938 217.876 39.7248 225.251 39.7248C232.626 39.7248 238.172 45.0938 238.172 52.9408C238.172 60.7878 232.626 66.1568 225.251 66.1568ZM273.38 74.2988C285.121 74.2988 292.083 67.5728 292.083 55.4188V32.2908H282.643V55.0648C282.643 62.9118 279.28 66.1568 273.439 66.1568C267.657 66.1568 264.235 62.9118 264.235 55.0648V32.2908H254.677V55.4188C254.677 67.5728 261.639 74.2988 273.38 74.2988ZM315.098 74.2988C326.898 74.2988 332.621 68.3988 332.621 61.4958C332.621 46.3328 308.608 51.5838 308.608 43.9728C308.608 41.3768 310.791 39.2528 316.455 39.2528C320.113 39.2528 324.066 40.3148 327.901 42.4978L330.851 35.2408C327.016 32.8218 321.706 31.5828 316.514 31.5828C304.773 31.5828 299.109 37.4238 299.109 44.4448C299.109 59.7848 323.122 54.4748 323.122 62.2038C323.122 64.7408 320.821 66.6288 315.157 66.6288C310.201 66.6288 305.009 64.8588 301.528 62.3218L298.283 69.5198C301.941 72.3518 308.549 74.2988 315.098 74.2988ZM374.16 32.2908H364.779L353.746 50.6398L342.713 32.2908H332.565L348.554 58.8408V73.5908H358.112V58.9588L374.16 32.2908Z" fill="black"/>
<path d="M156.928 115.309C156.719 115.309 156.445 115.281 156.108 115.227C155.771 115.181 155.511 115.135 155.329 115.09L155.602 112.971C155.757 112.989 155.971 113.003 156.245 113.012C156.518 113.03 156.705 113.039 156.805 113.039C157.379 113.039 157.844 112.82 158.2 112.383C158.564 111.945 158.902 111.348 159.211 110.592L159.854 109.033L154.618 96.4961L153.032 96.2773V94.541H159.239V96.2773L157.448 96.5508L160.333 103.947L161.03 105.875H161.112L164.53 96.5508L162.643 96.2773V94.541H168.727V96.2773L167.196 96.4961L161.372 111.604C161.098 112.314 160.765 112.948 160.374 113.504C159.991 114.069 159.517 114.511 158.952 114.83C158.396 115.149 157.721 115.309 156.928 115.309ZM176.342 109.621C174.975 109.621 173.795 109.302 172.801 108.664C171.817 108.017 171.056 107.128 170.518 105.998C169.98 104.859 169.711 103.56 169.711 102.102V101.801C169.711 100.342 169.98 99.0482 170.518 97.918C171.056 96.7786 171.817 95.8854 172.801 95.2383C173.795 94.5911 174.966 94.2676 176.315 94.2676C177.682 94.2676 178.858 94.5911 179.842 95.2383C180.836 95.8854 181.601 96.7741 182.139 97.9043C182.677 99.0345 182.946 100.333 182.946 101.801V102.102C182.946 103.569 182.677 104.872 182.139 106.012C181.601 107.142 180.84 108.026 179.856 108.664C178.872 109.302 177.7 109.621 176.342 109.621ZM176.342 107.516C177.199 107.516 177.915 107.283 178.489 106.818C179.072 106.344 179.51 105.702 179.801 104.891C180.102 104.07 180.252 103.141 180.252 102.102V101.801C180.252 100.762 180.102 99.8366 179.801 99.0254C179.51 98.2051 179.072 97.5625 178.489 97.0977C177.905 96.6237 177.181 96.3867 176.315 96.3867C175.458 96.3867 174.738 96.6237 174.155 97.0977C173.571 97.5625 173.134 98.2051 172.842 99.0254C172.551 99.8366 172.405 100.762 172.405 101.801V102.102C172.405 103.141 172.551 104.07 172.842 104.891C173.134 105.702 173.571 106.344 174.155 106.818C174.747 107.283 175.476 107.516 176.342 107.516ZM191.532 109.621C189.928 109.621 188.674 109.106 187.772 108.076C186.87 107.046 186.418 105.442 186.418 103.264V96.6602L184.723 96.2773V94.541H186.418H189.112V103.291C189.112 104.868 189.344 105.952 189.809 106.545C190.274 107.137 190.999 107.434 191.983 107.434C192.94 107.434 193.728 107.242 194.348 106.859C194.977 106.467 195.451 105.916 195.77 105.205V96.6602L193.788 96.2773V94.541H195.77H198.463V107.229L200.159 107.611V109.334H196.043L195.866 107.146C195.401 107.939 194.799 108.55 194.061 108.979C193.332 109.407 192.489 109.621 191.532 109.621ZM202.032 109.334V107.611L204.26 107.229V96.6602L202.032 96.2773V94.541H206.667L206.899 96.4277L206.926 96.6875C207.346 95.931 207.861 95.3385 208.471 94.9102C209.091 94.4818 209.797 94.2676 210.59 94.2676C210.873 94.2676 211.16 94.2949 211.452 94.3496C211.752 94.3952 211.967 94.4408 212.094 94.4863L211.739 96.9883L209.866 96.8789C209.155 96.8333 208.558 96.9974 208.075 97.3711C207.592 97.7357 207.218 98.2279 206.954 98.8477V107.229L209.182 107.611V109.334H202.032ZM220.68 109.334V107.611L222.909 107.229V96.6602L220.68 96.2773V94.541H225.315L225.547 96.4277L225.575 96.6875C225.994 95.931 226.509 95.3385 227.12 94.9102C227.739 94.4818 228.446 94.2676 229.239 94.2676C229.521 94.2676 229.808 94.2949 230.1 94.3496C230.401 94.3952 230.615 94.4408 230.743 94.4863L230.387 96.9883L228.514 96.8789C227.803 96.8333 227.206 96.9974 226.723 97.3711C226.24 97.7357 225.866 98.2279 225.602 98.8477V107.229L227.831 107.611V109.334H220.68ZM238.85 109.621C237.483 109.621 236.293 109.311 235.282 108.691C234.27 108.062 233.486 107.192 232.93 106.08C232.383 104.968 232.11 103.683 232.11 102.225V101.623C232.11 100.219 232.397 98.9661 232.971 97.8633C233.555 96.7513 234.325 95.8763 235.282 95.2383C236.248 94.5911 237.301 94.2676 238.44 94.2676C239.771 94.2676 240.883 94.541 241.776 95.0879C242.678 95.6348 243.357 96.4049 243.813 97.3984C244.269 98.3828 244.497 99.5449 244.497 100.885V102.566H234.899L234.858 102.635C234.876 103.583 235.04 104.426 235.35 105.164C235.669 105.893 236.125 106.467 236.717 106.887C237.31 107.306 238.021 107.516 238.85 107.516C239.762 107.516 240.559 107.388 241.243 107.133C241.935 106.868 242.532 106.508 243.034 106.053L244.086 107.803C243.558 108.313 242.856 108.746 241.981 109.102C241.115 109.448 240.071 109.621 238.85 109.621ZM234.981 100.461H241.803V100.105C241.803 99.3945 241.676 98.7611 241.42 98.2051C241.174 97.64 240.801 97.1979 240.299 96.8789C239.807 96.5508 239.187 96.3867 238.44 96.3867C237.838 96.3867 237.292 96.5645 236.799 96.9199C236.307 97.2663 235.902 97.7402 235.583 98.3418C235.264 98.9434 235.054 99.627 234.954 100.393L234.981 100.461ZM251.606 109.621C250.066 109.621 248.894 109.247 248.092 108.5C247.29 107.743 246.889 106.682 246.889 105.314C246.889 104.376 247.144 103.56 247.655 102.867C248.174 102.165 248.922 101.623 249.897 101.24C250.872 100.848 252.039 100.652 253.397 100.652H256.036V99.2031C256.036 98.3099 255.762 97.6172 255.215 97.125C254.678 96.6328 253.917 96.3867 252.932 96.3867C252.312 96.3867 251.775 96.4642 251.319 96.6191C250.863 96.765 250.448 96.9701 250.075 97.2344L249.788 99.2988H247.709V95.9082C248.375 95.3704 249.15 94.9648 250.034 94.6914C250.918 94.4089 251.898 94.2676 252.973 94.2676C254.769 94.2676 256.177 94.696 257.198 95.5527C258.219 96.4095 258.729 97.6354 258.729 99.2305V106.354C258.729 106.545 258.729 106.732 258.729 106.914C258.738 107.096 258.752 107.279 258.77 107.461L260.206 107.611V109.334H256.336C256.254 108.933 256.191 108.573 256.145 108.254C256.099 107.935 256.068 107.616 256.049 107.297C255.53 107.962 254.878 108.518 254.094 108.965C253.319 109.402 252.49 109.621 251.606 109.621ZM252.002 107.365C252.896 107.365 253.711 107.151 254.45 106.723C255.188 106.294 255.717 105.779 256.036 105.178V102.498H253.301C252.062 102.498 251.132 102.794 250.512 103.387C249.892 103.979 249.583 104.64 249.583 105.369C249.583 106.016 249.783 106.513 250.184 106.859C250.585 107.197 251.191 107.365 252.002 107.365ZM262.161 109.334V107.611L264.389 107.229V90.125L262.161 89.7422V88.0059H267.083V107.229L269.311 107.611V109.334H262.161ZM276.461 109.566C275.368 109.566 274.497 109.247 273.85 108.609C273.212 107.962 272.893 106.932 272.893 105.52V96.5371H270.555V94.541H272.893V90.9727H275.586V94.541H278.799V96.5371H275.586V105.52C275.586 106.23 275.728 106.755 276.01 107.092C276.293 107.429 276.671 107.598 277.145 107.598C277.464 107.598 277.819 107.57 278.211 107.516C278.603 107.452 278.909 107.397 279.127 107.352L279.497 109.115C279.105 109.234 278.622 109.339 278.047 109.43C277.482 109.521 276.954 109.566 276.461 109.566ZM287.631 109.621C286.264 109.621 285.084 109.302 284.09 108.664C283.106 108.017 282.345 107.128 281.807 105.998C281.269 104.859 281 103.56 281 102.102V101.801C281 100.342 281.269 99.0482 281.807 97.918C282.345 96.7786 283.106 95.8854 284.09 95.2383C285.084 94.5911 286.255 94.2676 287.604 94.2676C288.971 94.2676 290.147 94.5911 291.131 95.2383C292.125 95.8854 292.89 96.7741 293.428 97.9043C293.966 99.0345 294.235 100.333 294.235 101.801V102.102C294.235 103.569 293.966 104.872 293.428 106.012C292.89 107.142 292.129 108.026 291.145 108.664C290.161 109.302 288.989 109.621 287.631 109.621ZM287.631 107.516C288.488 107.516 289.204 107.283 289.778 106.818C290.361 106.344 290.799 105.702 291.09 104.891C291.391 104.07 291.542 103.141 291.542 102.102V101.801C291.542 100.762 291.391 99.8366 291.09 99.0254C290.799 98.2051 290.361 97.5625 289.778 97.0977C289.194 96.6237 288.47 96.3867 287.604 96.3867C286.747 96.3867 286.027 96.6237 285.444 97.0977C284.861 97.5625 284.423 98.2051 284.131 99.0254C283.84 99.8366 283.694 100.762 283.694 101.801V102.102C283.694 103.141 283.84 104.07 284.131 104.891C284.423 105.702 284.861 106.344 285.444 106.818C286.036 107.283 286.765 107.516 287.631 107.516ZM296.286 109.334V107.611L298.514 107.229V96.6602L296.286 96.2773V94.541H300.92L301.153 96.4277L301.18 96.6875C301.599 95.931 302.114 95.3385 302.725 94.9102C303.345 94.4818 304.051 94.2676 304.844 94.2676C305.127 94.2676 305.414 94.2949 305.706 94.3496C306.006 94.3952 306.221 94.4408 306.348 94.4863L305.993 96.9883L304.12 96.8789C303.409 96.8333 302.812 96.9974 302.329 97.3711C301.846 97.7357 301.472 98.2279 301.208 98.8477V107.229L303.436 107.611V109.334H296.286Z" fill="black"/>
</svg>
